<svg xmlns="http://www.w3.org/2000/svg" viewBox="0 0 89.5 89.5"><defs><style>.cls-1{fill:#42413f;}.cls-2{fill:#2ac2bc;}.cls-3{fill:none;stroke:#f26c4f;stroke-miterlimit:10;stroke-width:3px;}</style></defs><title>icon_nutrition_gmo_free</title><g id="Layer_2" data-name="Layer 2"><g id="Layer_1-2" data-name="Layer 1"><path class="cls-1" d="M50.2,39.45V28.58A3.34,3.34,0,0,0,50,21.91H39.09a3.34,3.34,0,0,0-.2,6.67V39.45L25.7,62.82a3.22,3.22,0,0,0,2.81,4.81H60.58a3.22,3.22,0,0,0,2.8-4.81ZM37.31,25.25a1.78,1.78,0,0,1,1.78-1.78H50A1.79,1.79,0,0,1,50,27H39.09A1.79,1.79,0,0,1,37.31,25.25Zm3,14.79a.75.75,0,0,0,.1-.38V28.6h8.18V39.66a.86.86,0,0,0,.1.38l4.86,8.6a11.61,11.61,0,0,1-8.5-.2l-.24-.11-.25-.1a13.06,13.06,0,0,0-8.54-.58ZM62,65.25a1.65,1.65,0,0,1-1.43.82H28.51a1.66,1.66,0,0,1-1.45-2.48l7.84-13.9a11.57,11.57,0,0,1,9.09,0l.25.1.24.1a13,13,0,0,0,9.88.14L62,63.59A1.64,1.64,0,0,1,62,65.25Z"/><path class="cls-1" d="M38.61,53.09A2.87,2.87,0,1,0,41.48,56,2.87,2.87,0,0,0,38.61,53.09Zm0,4.17a1.3,1.3,0,1,1,1.3-1.3A1.3,1.3,0,0,1,38.61,57.26Z"/><path class="cls-1" d="M51.34,54a2,2,0,1,0,2,2A2,2,0,0,0,51.34,54Zm0,2.43A.44.44,0,0,1,50.9,56a.44.44,0,0,1,.44-.44.44.44,0,0,1,.43.44A.43.43,0,0,1,51.34,56.39Z"/><path class="cls-1" d="M45.38,60.27a2,2,0,1,0,2,2A2,2,0,0,0,45.38,60.27Zm0,2.44a.44.44,0,0,1-.44-.44.44.44,0,0,1,.44-.43.43.43,0,0,1,.43.43A.44.44,0,0,1,45.38,62.71Z"/><path class="cls-2" d="M62,63.59,54.36,50a13,13,0,0,1-9.88-.14l-.24-.1-.25-.1a11.57,11.57,0,0,0-9.09,0l-7.84,13.9a1.66,1.66,0,0,0,1.45,2.48H60.58A1.66,1.66,0,0,0,62,63.59ZM38.61,58.82A2.87,2.87,0,1,1,41.48,56,2.86,2.86,0,0,1,38.61,58.82Zm6.77,5.45a2,2,0,1,1,2-2A2,2,0,0,1,45.38,64.27Zm6-6.31a2,2,0,1,1,2-2A2,2,0,0,1,51.34,58Z"/><circle class="cls-3" cx="44.75" cy="44.75" r="43.25"/></g></g></svg>