<svg xmlns="http://www.w3.org/2000/svg" viewBox="0 0 89.5 89.5"><defs><style>.cls-1{fill:#42413f;}.cls-2{fill:#2ac2bc;}.cls-3{fill:none;stroke:#f26c4f;stroke-miterlimit:10;stroke-width:3px;}</style></defs><title>icon_nutrition_dairy_free</title><g id="Layer_2" data-name="Layer 2"><g id="Layer_1-2" data-name="Layer 1"><path class="cls-1" d="M36.51,73.23h16.9a6.05,6.05,0,0,0,6.05-6V39.56A8.46,8.46,0,0,0,57.4,34L52,27.86V25.35A3.13,3.13,0,0,0,55,22.24V21.5a3.15,3.15,0,0,0-3.14-3.14H38.1A3.15,3.15,0,0,0,35,21.5v.74a3.13,3.13,0,0,0,2.92,3.11v2.51L32.52,34a8.46,8.46,0,0,0-2.06,5.53V67.18A6.06,6.06,0,0,0,36.51,73.23Zm0-51V21.5a1.57,1.57,0,0,1,1.57-1.57H51.82A1.57,1.57,0,0,1,53.4,21.5v.74a1.57,1.57,0,0,1-1.58,1.57H38.1A1.57,1.57,0,0,1,36.53,22.24ZM32,39.56a6.87,6.87,0,0,1,1.68-4.5l5.56-6.4a.78.78,0,0,0,.19-.51V25.37h11v2.78a.74.74,0,0,0,.19.51l5.55,6.4a6.87,6.87,0,0,1,1.68,4.5v2.93H41.63a.78.78,0,0,0-.78.78v19.6a.78.78,0,0,0,.78.78H55.7a.78.78,0,0,0,0-1.56H42.41v-18H57.9V67.18a4.49,4.49,0,0,1-4.49,4.49H36.51A4.5,4.5,0,0,1,32,67.18Z"/><path class="cls-1" d="M35.39,47a.78.78,0,0,0,.78-.78V41.44a6.87,6.87,0,0,1,1.68-4.5l1.76-2a.78.78,0,1,0-1.18-1l-1.76,2a8.41,8.41,0,0,0-2.06,5.52v4.74A.78.78,0,0,0,35.39,47Z"/><path class="cls-2" d="M56.44,63.06a.77.77,0,0,1-.74.59H41.63a.78.78,0,0,1-.78-.78V43.27a.78.78,0,0,1,.78-.78H57.9V39.56a6.87,6.87,0,0,0-1.68-4.5l-5.55-6.4a.74.74,0,0,1-.19-.51V25.37h-11v2.78a.78.78,0,0,1-.19.51l-5.56,6.4A6.87,6.87,0,0,0,32,39.56V67.18a4.5,4.5,0,0,0,4.49,4.49h16.9a4.49,4.49,0,0,0,4.49-4.49V63.06Z"/><path class="cls-1" d="M35.39,47a.78.78,0,0,0,.78-.78V41.44a6.87,6.87,0,0,1,1.68-4.5l1.76-2a.78.78,0,1,0-1.18-1l-1.76,2a8.41,8.41,0,0,0-2.06,5.52v4.74A.78.78,0,0,0,35.39,47Z"/><circle class="cls-3" cx="44.75" cy="44.75" r="43.25"/></g></g></svg>