<svg xmlns="http://www.w3.org/2000/svg" viewBox="0 0 165.000000 165.000000"><defs><style>.cls-1{fill:#231f20;}</style></defs><title>icon_made_in_usa</title><g class="cls-1" transform="translate(0.000000,165.000000) scale(0.050000,-0.050000)" stroke="none"><path d="M1450 3287 c-1360 -170 -1926 -1852 -944 -2809 872 -851 2356 -475 2712 688 349 1140 -591 2267 -1768 2121z m540 -259 c460 -112 870 -499 1016 -958 99 -312 43 -865 -110 -1086 l-46 -65 -1200 -1 -1200 -2 -66 122 c-556 1024 450 2271 1606 1990z m770 -2241 c0 -86 -11 -87 -1107 -87 -1085 0 -1113 2 -1113 83 0 9 500 17 1110 17 611 0 1110 -6 1110 -13z m-221 -222 c-5 -133 -1773 -133 -1778 0 -1 8 399 15 889 15 490 0 890 -7 889 -15z m-387 -222 c-73 -117 -931 -117 -1004 0 -6 9 220 17 502 17 282 0 508 -8 502 -17z"/><path d="M1621 2855 l-26 -95 -112 0 -111 0 84 -62 c89 -65 96 -84 63 -169 -28 -76 -12 -81 65 -22 l66 50 50 -39 c111 -87 118 -86 82 14 -35 100 -36 98 99 192 49 34 48 34 -62 35 l-112 1 -29 95 -30 95 -27 -95z"/><path d="M2311 2685 c-12 -56 -23 -65 -76 -65 l-62 0 45 -47 c33 -36 41 -61 30 -103 l-13 -55 51 34 c48 31 55 31 102 1 l50 -33 -17 61 c-16 53 -11 66 36 101 l53 40 -65 0 c-54 1 -69 12 -92 66 l-27 65 -15 -65z"/><path d="M971 2675 c-13 -47 -26 -55 -88 -55 l-73 0 56 -45 c51 -41 54 -51 35 -101 -30 -79 -28 -80 39 -31 56 41 61 42 96 10 53 -48 66 -41 42 22 -18 48 -14 60 36 100 l56 45 -71 0 c-59 0 -75 9 -92 55 l-21 55 -15 -55z"/><path d="M720 2120 c0 -93 8 -160 20 -160 11 0 20 50 20 110 0 61 8 110 17 110 9 0 28 -49 41 -110 33 -144 72 -144 104 1 34 151 58 156 58 10 0 -67 9 -121 20 -121 12 0 20 67 20 161 0 202 -66 233 -112 52 -34 -133 -41 -133 -78 -5 -54 185 -110 161 -110 -48z"/><path d="M1182 2235 c-10 -25 -37 -93 -60 -151 -50 -125 -50 -124 -14 -124 15 0 32 18 38 40 8 30 27 40 81 40 53 0 73 -10 83 -40 7 -22 26 -40 42 -40 24 0 24 11 -4 75 -18 41 -45 113 -62 160 -33 93 -77 110 -104 40z m85 -160 c-13 -22 -87 -19 -87 4 0 10 10 44 22 75 l23 56 26 -60 c14 -33 21 -67 16 -75z"/><path d="M1440 2123 l0 -163 85 0 c236 1 244 288 9 315 l-94 10 0 -162z m169 86 c74 -75 27 -209 -73 -209 -54 0 -56 3 -56 107 0 138 51 179 129 102z"/><path d="M1780 2120 l0 -160 110 0 c61 0 110 9 110 20 0 11 -40 20 -90 20 -83 0 -90 4 -90 50 0 45 8 50 80 50 44 0 80 9 80 20 0 11 -36 20 -80 20 -72 0 -80 5 -80 50 0 46 7 50 91 50 56 0 87 8 79 20 -7 11 -57 20 -111 20 l-99 0 0 -160z"/><path d="M2200 2122 c0 -116 7 -162 25 -162 18 0 24 42 21 155 -4 213 -46 220 -46 7z"/><path d="M2340 2122 c0 -179 34 -223 44 -57 l6 105 67 -105 c97 -152 123 -141 123 55 0 93 -8 160 -20 160 -11 0 -20 -43 -20 -97 0 -135 -17 -138 -89 -19 -93 155 -111 148 -111 -42z"/><path d="M740 1539 c0 -358 36 -419 250 -419 230 0 270 64 270 435 l0 225 -60 0 -60 0 0 -229 c0 -317 -56 -407 -204 -329 -72 38 -75 52 -76 313 l0 245 -60 0 -60 0 0 -241z"/><path d="M1506 1760 c-45 -18 -106 -115 -106 -167 0 -69 100 -150 215 -176 210 -47 249 -179 61 -210 -64 -10 -82 -4 -137 51 -77 77 -169 87 -149 17 33 -115 141 -167 320 -155 155 11 239 132 183 266 -30 71 -27 69 -283 158 -83 29 -116 87 -67 118 54 34 173 20 204 -23 21 -30 46 -40 90 -35 l61 6 -30 62 c-48 99 -227 142 -362 88z"/><path d="M2224 1746 c-11 -20 -62 -148 -114 -286 -52 -137 -102 -270 -112 -295 -15 -40 -11 -45 43 -45 51 0 64 12 91 80 l32 80 136 0 136 0 32 -80 c27 -69 40 -80 92 -80 74 0 82 -42 -67 332 -124 308 -129 318 -189 324 -43 5 -67 -4 -80 -30z m132 -260 c46 -120 43 -126 -58 -126 -100 0 -106 16 -55 149 48 126 58 124 113 -23z"/></g></svg>