<svg xmlns="http://www.w3.org/2000/svg" viewBox="0 0 89.5 89.5"><defs><style>.cls-1{fill:#42413f;}.cls-2{fill:#2ac2bc;}.cls-3{fill:none;stroke:#f26c4f;stroke-miterlimit:10;stroke-width:3px;}</style></defs><title>icon_nutrition_all_natural</title><g id="Layer_2" data-name="Layer 2"><g id="Layer_1-2" data-name="Layer 1"><path class="cls-1" d="M72.66,40.22a.83.83,0,0,0,0-.15.64.64,0,0,0-.08-.14.61.61,0,0,0-.07-.1.59.59,0,0,0-.18-.13l0,0a.65.65,0,0,0-.23-.06l-.06,0a60.44,60.44,0,0,0-11.13.24,46.41,46.41,0,0,0-9.3,1.87c-.46.14-.91.32-1.36.5A15.25,15.25,0,0,0,44.44,28a.66.66,0,0,0-.17-.12,12.55,12.55,0,0,0-1-.76A37.47,37.47,0,0,0,37.51,24a.89.89,0,0,0-.31-.19h-.11c-.73-.33-1.5-.67-2.32-1a59.9,59.9,0,0,0-10.64-3.28h-.25l-.17,0-.11,0a.71.71,0,0,0-.14.1l-.1.09s-.05.09-.08.14a.26.26,0,0,0-.05.09,60.09,60.09,0,0,0-2.82,10.77,46.87,46.87,0,0,0-.75,9.46,15.34,15.34,0,0,0,21.07,14,15.3,15.3,0,0,0,4.32,13h0a15.32,15.32,0,0,0,21.67,0,15.45,15.45,0,0,0,3.34-5,1.18,1.18,0,0,0,.07-.2c.15-.4.32-.8.44-1.21a46.3,46.3,0,0,0,1.88-9.32,60.57,60.57,0,0,0,.24-11.14S72.67,40.26,72.66,40.22ZM61,41.39a57.85,57.85,0,0,1,10.15-.27,58.85,58.85,0,0,1-.26,10.15c-.09.71-.18,1.37-.27,2H60.1l4.16-4.16A.78.78,0,0,0,63.15,48l-5.43,5.42a1.21,1.21,0,0,0-.16.16l-1.94,2V42.23C57.18,41.91,59,41.63,61,41.39Zm8.07,18.92c-.07.25-.18.48-.26.73H52.35l6.19-6.19H70.39A35.42,35.42,0,0,1,69.08,60.31ZM47,33.39A13.62,13.62,0,0,1,48.42,43a15.41,15.41,0,0,0-3.37,2.53,15.1,15.1,0,0,0-3.33,5l-2.16-3.88L44.31,30A13.68,13.68,0,0,1,47,33.39Zm-4-4.48L38.48,44.75l-4.25-7.64,3.24-11.4a34.83,34.83,0,0,1,4.89,2.75C42.58,28.6,42.78,28.76,43,28.91ZM22,31a58.37,58.37,0,0,1,2.53-9.84,59.19,59.19,0,0,1,9.69,3c.66.27,1.27.54,1.87.81L33.15,35.18,30.29,30a.78.78,0,1,0-1.36.76l3.73,6.7a.68.68,0,0,0,.12.22l1.73,3.1H21.27c0-.21,0-.41-.05-.62A45.18,45.18,0,0,1,22,31Zm1,15.74a13.8,13.8,0,0,1-1.53-4.4H35.38L38,47.07a.68.68,0,0,0,.12.22L41,52.46A13.83,13.83,0,0,1,23,46.78Zm23.18-.11A13.82,13.82,0,0,1,52,43.19c.64-.21,1.32-.41,2.06-.6V57.12L50,61.2a.55.55,0,0,0-.17.17l-4.18,4.18A13.76,13.76,0,0,1,46.15,46.67ZM65.61,66.13a13.76,13.76,0,0,1-18.89.54l4.07-4.07H68.14A13.51,13.51,0,0,1,65.61,66.13Z"/><path class="cls-2" d="M47,33.39A13.62,13.62,0,0,1,48.42,43a15.41,15.41,0,0,0-3.37,2.53,15.1,15.1,0,0,0-3.33,5l-2.16-3.88L44.31,30A13.68,13.68,0,0,1,47,33.39Z"/><path class="cls-2" d="M43,28.91,38.48,44.75l-4.25-7.64,3.24-11.4a34.83,34.83,0,0,1,4.89,2.75C42.58,28.6,42.78,28.76,43,28.91Z"/><path class="cls-2" d="M22,31a58.37,58.37,0,0,1,2.53-9.84,59.19,59.19,0,0,1,9.69,3c.66.27,1.27.54,1.87.81L33.15,35.18,30.29,30a.78.78,0,1,0-1.36.76l3.73,6.7a.68.68,0,0,0,.12.22l1.73,3.1H21.27c0-.21,0-.41-.05-.62A45.18,45.18,0,0,1,22,31Z"/><path class="cls-2" d="M23,46.78a13.8,13.8,0,0,1-1.53-4.4H35.38L38,47.07a.68.68,0,0,0,.12.22L41,52.46A13.83,13.83,0,0,1,23,46.78Z"/><circle class="cls-3" cx="44.75" cy="44.75" r="43.25"/></g></g></svg>