<svg xmlns="http://www.w3.org/2000/svg" viewBox="0 0 89.5 89.5"><defs><style>.cls-1{fill:#42413f;}.cls-2{fill:#2ac2bc;}.cls-3{fill:none;stroke:#f26c4f;stroke-miterlimit:10;stroke-width:3px;}</style></defs><title>icon_nutrition_gluten_free</title><g id="Layer_2" data-name="Layer 2"><g id="Layer_1-2" data-name="Layer 1"><path class="cls-1" d="M29.72,61.5A8.24,8.24,0,0,0,44.34,64v7.55a.78.78,0,1,0,1.56,0V64a8.24,8.24,0,0,0,14.34-1.7s0-.06,0-.09c.08-.22.17-.43.23-.65a19.37,19.37,0,0,0,.76-3.27.78.78,0,0,0,.07-.31s0,0,0-.05c.06-.4.12-.8.17-1.25a31,31,0,0,0,.12-5.8s0-.06,0-.1a.57.57,0,0,0,0-.14,1,1,0,0,0-.08-.14l-.09-.11-.12-.09-.13-.07-.14,0a.29.29,0,0,0-.1,0,30.47,30.47,0,0,0-4.88.06,6.63,6.63,0,0,0,1.3-2l0-.08a5.62,5.62,0,0,0,.19-.53,15.51,15.51,0,0,0,.63-2.67.93.93,0,0,0,0-.23s0,0,0,0c0-.31.1-.63.14-1a25.61,25.61,0,0,0,.1-4.65.29.29,0,0,0,0-.1.83.83,0,0,0,0-.15l-.08-.13a.44.44,0,0,0-.08-.11l-.11-.09a.71.71,0,0,0-.15-.08.42.42,0,0,0-.12,0l-.12,0a27.75,27.75,0,0,0-3.29,0,5.53,5.53,0,0,0,.95-1.55l0-.06c.05-.15.12-.3.16-.45a13.39,13.39,0,0,0,.53-2.32.79.79,0,0,0,0-.13v0c0-.26.07-.52.1-.8A20.91,20.91,0,0,0,56.31,29a.45.45,0,0,0,0-.11.65.65,0,0,0,0-.13.51.51,0,0,0-.09-.16.24.24,0,0,0-.06-.08.44.44,0,0,0-.15-.12l-.1-.06-.16,0s-.06,0-.1,0a20.83,20.83,0,0,0-3.88.09c-.58.06-1.08.14-1.55.23a5.58,5.58,0,0,0,.7-2.69,5.73,5.73,0,0,0-.68-2.71,15.78,15.78,0,0,0-1.85-2.79,20.87,20.87,0,0,0-2.69-2.81l-.09-.05-.13-.07-.14,0-.15,0-.14,0-.15,0-.13.07-.09.05a21.48,21.48,0,0,0-2.69,2.81,16.12,16.12,0,0,0-1.84,2.76,5.83,5.83,0,0,0-.69,2.74,5.7,5.7,0,0,0,.7,2.69c-.47-.09-1-.17-1.54-.23a21,21,0,0,0-3.89-.09l-.1,0-.15,0-.13.07-.12.1a.44.44,0,0,0-.08.11.57.57,0,0,0-.08.13.83.83,0,0,0,0,.15l0,.1A21,21,0,0,0,34,32.92a15.91,15.91,0,0,0,.65,3.25,5.79,5.79,0,0,0,1.15,2.09,27.75,27.75,0,0,0-3.29,0l-.13,0a.38.38,0,0,0-.1,0,.59.59,0,0,0-.17.1l-.08.06a.63.63,0,0,0-.11.13.75.75,0,0,0-.07.12.83.83,0,0,0,0,.15l0,.1a25.63,25.63,0,0,0,.1,4.65,19,19,0,0,0,.79,3.89,6.68,6.68,0,0,0,1.53,2.67,30.45,30.45,0,0,0-4.88-.06l-.1,0-.14,0-.13.07-.12.09-.09.11-.07.14a.57.57,0,0,0,0,.14.54.54,0,0,0,0,.1,31,31,0,0,0,.12,5.8A24.22,24.22,0,0,0,29.72,61.5ZM43.93,50.38c.15-.16.27-.34.41-.51v4.46a8,8,0,0,0-2.78-2.44A6.7,6.7,0,0,0,43.93,50.38Zm1.19-18.72h0l0,0,0,0Zm1.2,18.72a6.57,6.57,0,0,0,2.36,1.51,8,8,0,0,0-2.78,2.44V49.87C46,50,46.16,50.22,46.32,50.38ZM46,38.59a5.65,5.65,0,0,0,1.72,1.17,6.2,6.2,0,0,0-1.42,1.08,5,5,0,0,0-.42.5V38.45A.81.81,0,0,0,46,38.59Zm-1.8,0a.81.81,0,0,0,.12-.14v2.89c-.14-.17-.26-.35-.41-.5a6.67,6.67,0,0,0-1.42-1.08A5.66,5.66,0,0,0,44.22,38.59ZM60.08,51.67a29.31,29.31,0,0,1-.13,4.8c0,.25-.07.47-.1.7H53.78a.78.78,0,1,0,0,1.56H59.6A15.68,15.68,0,0,1,59,61.05l0,.11H49.8a.78.78,0,0,0,0,1.56h8.46a6.87,6.87,0,0,1-.92,1.17,6.7,6.7,0,1,1-6.61-11.17,22.59,22.59,0,0,1,4.55-.91A28.25,28.25,0,0,1,60.08,51.67ZM56.9,39.8a23.2,23.2,0,0,1-.12,3.65c0,.15,0,.28-.05.42H52a.78.78,0,1,0,0,1.56h4.45a15.23,15.23,0,0,1-.41,1.62H48.85a.78.78,0,0,0,0,1.56H55.3a5.83,5.83,0,0,1-.55.66,5.18,5.18,0,1,1-7.33-7.33,5.21,5.21,0,0,1,2.22-1.31,17.54,17.54,0,0,1,3.6-.72A22.16,22.16,0,0,1,56.9,39.8Zm-5-9.86a19.65,19.65,0,0,1,2.89-.1,19.65,19.65,0,0,1-.1,2.89l0,.23H50.85a.79.79,0,0,0,0,1.57h3.54a11,11,0,0,1-.28,1.07H48.22a.78.78,0,1,0,0,1.56h5.05a2.6,2.6,0,0,1-.25.33,4.17,4.17,0,0,1-5.9-5.9,4.25,4.25,0,0,1,1.8-1.06A14.71,14.71,0,0,1,51.88,29.94Zm-10.41-6a14.89,14.89,0,0,1,1.68-2.51,19.34,19.34,0,0,1,2-2.11,19.58,19.58,0,0,1,2,2.11,15.77,15.77,0,0,1,1.69,2.54,4.17,4.17,0,1,1-7.84,2A4.31,4.31,0,0,1,41.47,23.91Zm-6,5.93a19.65,19.65,0,0,1,2.89.1,14.72,14.72,0,0,1,3,.6,4.17,4.17,0,0,1,1.77,7,4.17,4.17,0,0,1-7-1.8,14.71,14.71,0,0,1-.59-3A19.65,19.65,0,0,1,35.47,29.84Zm-2,13.61a23.22,23.22,0,0,1-.11-3.65,22.07,22.07,0,0,1,3.65.11,17.56,17.56,0,0,1,3.63.73,5.18,5.18,0,1,1-6.45,6.41A17.54,17.54,0,0,1,33.46,43.45ZM35,51.81a22.46,22.46,0,0,1,4.58.92,6.67,6.67,0,0,1,4.8,6.41v0A6.7,6.7,0,0,1,31.21,61a22.59,22.59,0,0,1-.91-4.55,28.25,28.25,0,0,1-.14-4.8A28.25,28.25,0,0,1,35,51.81Z"/><path class="cls-2" d="M60.08,51.67a29.31,29.31,0,0,1-.13,4.8c0,.25-.07.47-.1.7H53.78a.78.78,0,1,0,0,1.56H59.6A15.68,15.68,0,0,1,59,61.05l0,.11H49.8a.78.78,0,0,0,0,1.56h8.46a6.87,6.87,0,0,1-.92,1.17,6.7,6.7,0,1,1-6.61-11.17,22.59,22.59,0,0,1,4.55-.91A28.25,28.25,0,0,1,60.08,51.67Z"/><path class="cls-2" d="M56.9,39.8a23.2,23.2,0,0,1-.12,3.65c0,.15,0,.28-.05.42H52a.78.78,0,1,0,0,1.56h4.45a15.23,15.23,0,0,1-.41,1.62H48.85a.78.78,0,0,0,0,1.56H55.3a5.83,5.83,0,0,1-.55.66,5.18,5.18,0,1,1-7.33-7.33,5.21,5.21,0,0,1,2.22-1.31,17.54,17.54,0,0,1,3.6-.72A22.16,22.16,0,0,1,56.9,39.8Z"/><path class="cls-2" d="M51.88,29.94a19.65,19.65,0,0,1,2.89-.1,19.65,19.65,0,0,1-.1,2.89l0,.23H50.85a.79.79,0,0,0,0,1.57h3.54a11,11,0,0,1-.28,1.07H48.22a.78.78,0,1,0,0,1.56h5.05a2.6,2.6,0,0,1-.25.33,4.17,4.17,0,0,1-5.9-5.9,4.25,4.25,0,0,1,1.8-1.06A14.71,14.71,0,0,1,51.88,29.94Z"/><path class="cls-2" d="M41.47,23.91a14.89,14.89,0,0,1,1.68-2.51,19.34,19.34,0,0,1,2-2.11,19.58,19.58,0,0,1,2,2.11,15.77,15.77,0,0,1,1.69,2.54,4.17,4.17,0,1,1-7.84,2A4.31,4.31,0,0,1,41.47,23.91Z"/><path class="cls-2" d="M35.47,29.84a19.65,19.65,0,0,1,2.89.1,14.72,14.72,0,0,1,3,.6,4.17,4.17,0,0,1,1.77,7,4.17,4.17,0,0,1-7-1.8,14.71,14.71,0,0,1-.59-3A19.65,19.65,0,0,1,35.47,29.84Z"/><path class="cls-2" d="M33.46,43.45a23.22,23.22,0,0,1-.11-3.65,22.07,22.07,0,0,1,3.65.11,17.56,17.56,0,0,1,3.63.73,5.18,5.18,0,1,1-6.45,6.41A17.54,17.54,0,0,1,33.46,43.45Z"/><path class="cls-2" d="M35,51.81a22.46,22.46,0,0,1,4.58.92,6.67,6.67,0,0,1,4.8,6.41v0A6.7,6.7,0,0,1,31.21,61a22.59,22.59,0,0,1-.91-4.55,28.25,28.25,0,0,1-.14-4.8A28.25,28.25,0,0,1,35,51.81Z"/><circle class="cls-3" cx="44.75" cy="44.75" r="43.25"/></g></g></svg>