<svg xmlns="http://www.w3.org/2000/svg" viewBox="0 0 89.5 89.5"><defs><style>.cls-1{fill:#42413f;}.cls-2{fill:#2ac2bc;}.cls-3{fill:none;stroke:#f26c4f;stroke-miterlimit:10;stroke-width:3px;}</style></defs><title>icon_nutrition_soy_free</title><g id="Layer_2" data-name="Layer 2"><g id="Layer_1-2" data-name="Layer 1"><path class="cls-1" d="M32.56,50a6.19,6.19,0,1,0-3.35-3.35A6.13,6.13,0,0,0,32.56,50Zm-1.9-7.49a4.62,4.62,0,1,1,2.5,6A4.61,4.61,0,0,1,30.66,42.51Z"/><path class="cls-1" d="M35.44,54.47a6.19,6.19,0,1,0,0,4.73A6.13,6.13,0,0,0,35.44,54.47ZM34,58.6a4.62,4.62,0,0,1-8.54-3.53A4.62,4.62,0,1,1,34,58.6Z"/><path class="cls-1" d="M38,61.64a9.64,9.64,0,0,0,1.08-6.8,2.37,2.37,0,0,1,1-2.49A9.5,9.5,0,0,0,43.79,48a9.32,9.32,0,0,0,.63-2.48A9.74,9.74,0,0,0,45.06,48a9.53,9.53,0,0,0,3.68,4.4,2.31,2.31,0,0,1,1,2.43,9.59,9.59,0,0,0,8.68,11.61,2.86,2.86,0,0,1,2.49,1.79,2.69,2.69,0,0,0,1.66,1.52,2.56,2.56,0,0,0,.82.13,2.69,2.69,0,0,0,1.42-.41,2.78,2.78,0,0,0,1-3.4,2.82,2.82,0,0,1,.52-2.9,9.58,9.58,0,0,0-2-14.33,2.36,2.36,0,0,1-1.06-2.46,9.55,9.55,0,0,0-4.19-10.12,2.37,2.37,0,0,1-1-2.49,9.57,9.57,0,0,0-8.72-11.55A2.81,2.81,0,0,1,47,20.49a2.77,2.77,0,0,0-3.11-1.7,2.69,2.69,0,0,0-1.78,1.39c0,.08-.06.16-.1.24l0,.06a2.9,2.9,0,0,1-2.49,1.69,9.59,9.59,0,0,0-8.68,11.61,2.3,2.3,0,0,1-1,2.43,9.59,9.59,0,0,0-4.19,10.12,2.29,2.29,0,0,1-1,2.43,9.6,9.6,0,0,0-2.07,14.35,2.85,2.85,0,0,1,.5,3,2.66,2.66,0,0,0,2.44,3.7A2.82,2.82,0,0,0,28,68.07a2.81,2.81,0,0,1,2.42-1.68A9.56,9.56,0,0,0,38,61.64Zm6.52-19.41c-.06.3-.09.61-.13.92a7.27,7.27,0,0,0-.13-.92,2.21,2.21,0,0,1,.15-1.34A2.35,2.35,0,0,1,44.55,42.23ZM44.2,20.32a.78.78,0,0,1,.22,0,1.25,1.25,0,0,1,1.1.8,4.36,4.36,0,0,0,3.74,2.64,8,8,0,0,1,7.31,9.67,3.91,3.91,0,0,0,1.68,4.12A8.05,8.05,0,0,1,61.76,46a3.92,3.92,0,0,0,1.73,4.11,8,8,0,0,1,1.67,12,4.33,4.33,0,0,0-.78,4.52h0A1.19,1.19,0,0,1,64,68.09a1.09,1.09,0,0,1-.93.12,1.18,1.18,0,0,1-.74-.73,4.37,4.37,0,0,0-3.78-2.65,8,8,0,0,1-7.26-9.71A3.9,3.9,0,0,0,49.59,51a8,8,0,0,1-3.51-8.46A3.85,3.85,0,0,0,45,39s0,0,0,0l0,0a4.41,4.41,0,0,0-.58-.47,8,8,0,0,1-1.74-12,4.41,4.41,0,0,0,.76-4.65,1.11,1.11,0,0,1,.05-.94A1.08,1.08,0,0,1,44.2,20.32ZM39.86,35.4a10.2,10.2,0,0,0,.48.93,4.52,4.52,0,0,1-2-.33,4.62,4.62,0,0,1,2-8.88A9.54,9.54,0,0,0,39.86,35.4ZM26.53,67.48a1.22,1.22,0,0,1-1.32.77,1.14,1.14,0,0,1-.74-.58,1.18,1.18,0,0,1,0-1,4.38,4.38,0,0,0-.81-4.54,8,8,0,0,1,1.74-12A3.9,3.9,0,0,0,27.09,46a8,8,0,0,1,3.5-8.47,3.89,3.89,0,0,0,1.7-4.09,8,8,0,0,1,7.26-9.71,4.66,4.66,0,0,0,2.52-1,2.81,2.81,0,0,1-.6,2.68c-.06.08-.11.16-.17.23a6.17,6.17,0,0,0-3.54,11.76,6.07,6.07,0,0,0,2.36.48,5.92,5.92,0,0,0,1.18-.13,9.42,9.42,0,0,0,2,1.85,3.89,3.89,0,0,0-.56,2.93A8.05,8.05,0,0,1,39.26,51a3.92,3.92,0,0,0-1.68,4.13,8,8,0,0,1-7.3,9.66A4.36,4.36,0,0,0,26.53,67.48Z"/><path class="cls-1" d="M47,27.46A4.62,4.62,0,0,1,53,30a.77.77,0,0,0,.72.48.8.8,0,0,0,.3-.06.77.77,0,0,0,.42-1A6.2,6.2,0,0,0,46.35,26a.78.78,0,0,0,.6,1.45Z"/><path class="cls-1" d="M51.55,38.56a.78.78,0,0,0,.6,1.45,4.63,4.63,0,0,1,6,2.5.77.77,0,0,0,.72.48.8.8,0,0,0,.3-.06.77.77,0,0,0,.42-1A6.2,6.2,0,0,0,51.55,38.56Z"/><path class="cls-1" d="M56.75,51.12a.77.77,0,0,0-.42,1,.78.78,0,0,0,1,.42,4.62,4.62,0,0,1,6,2.5.77.77,0,0,0,.72.48.76.76,0,0,0,.72-1.08,6.13,6.13,0,0,0-3.35-3.34A6.07,6.07,0,0,0,56.75,51.12Z"/><path class="cls-2" d="M43.33,39.64a9.42,9.42,0,0,1-2-1.85,5.92,5.92,0,0,1-1.18.13,6.07,6.07,0,0,1-2.36-.48A6.17,6.17,0,0,1,41.3,25.68c.06-.07.11-.15.17-.23a2.81,2.81,0,0,0,.6-2.68,4.66,4.66,0,0,1-2.52,1,8,8,0,0,0-7.26,9.71,3.89,3.89,0,0,1-1.7,4.09A8,8,0,0,0,27.09,46a3.9,3.9,0,0,1-1.69,4.08,8,8,0,0,0-1.74,12,4.38,4.38,0,0,1,.81,4.54,1.18,1.18,0,0,0,0,1,1.14,1.14,0,0,0,.74.58,1.22,1.22,0,0,0,1.32-.77,4.36,4.36,0,0,1,3.75-2.65,8,8,0,0,0,7.3-9.66A3.92,3.92,0,0,1,39.26,51a8.05,8.05,0,0,0,3.51-8.47A3.89,3.89,0,0,1,43.33,39.64ZM35.44,59.2a6.19,6.19,0,1,1,0-4.73A6.13,6.13,0,0,1,35.44,59.2Zm5.2-12.55a6.19,6.19,0,1,1-3.35-8.08,6.19,6.19,0,0,1,3.35,8.08Z"/><path class="cls-1" d="M44.55,42.23c-.06.3-.09.61-.13.92a7.27,7.27,0,0,0-.13-.92,2.21,2.21,0,0,1,.15-1.34A2.35,2.35,0,0,1,44.55,42.23Z"/><path class="cls-1" d="M47,27.46A4.62,4.62,0,0,1,53,30a.77.77,0,0,0,.72.48.8.8,0,0,0,.3-.06.77.77,0,0,0,.42-1A6.2,6.2,0,0,0,46.35,26a.78.78,0,0,0,.6,1.45Z"/><path class="cls-1" d="M51.55,38.56a.78.78,0,0,0,.6,1.45,4.63,4.63,0,0,1,6,2.5.77.77,0,0,0,.72.48.8.8,0,0,0,.3-.06.77.77,0,0,0,.42-1A6.2,6.2,0,0,0,51.55,38.56Z"/><path class="cls-1" d="M56.75,51.12a.77.77,0,0,0-.42,1,.78.78,0,0,0,1,.42,4.62,4.62,0,0,1,6,2.5.77.77,0,0,0,.72.48.76.76,0,0,0,.72-1.08,6.13,6.13,0,0,0-3.35-3.34A6.07,6.07,0,0,0,56.75,51.12Z"/><circle class="cls-3" cx="44.75" cy="44.75" r="43.25"/></g></g></svg>